<mxfile host="app.diagrams.net" modified="2020-08-06T17:27:23.766Z" agent="5.0 (Windows NT 10.0; Win64; x64) AppleWebKit/537.36 (KHTML, like Gecko) Chrome/84.0.4147.105 Safari/537.36" etag="sFRAVYo0jgH7PN83I256" version="13.5.9" type="github">
  <diagram id="_IFJutEF3Iz8n2r1wNuO" name="Page-1">
    <mxGraphModel dx="1422" dy="794" grid="1" gridSize="10" guides="1" tooltips="1" connect="1" arrows="1" fold="1" page="1" pageScale="1" pageWidth="850" pageHeight="1100" math="0" shadow="0">
      <root>
        <mxCell id="0" />
        <mxCell id="1" parent="0" />
        <mxCell id="CAYcls5t_juTczSQUHOq-6" style="edgeStyle=orthogonalEdgeStyle;rounded=0;orthogonalLoop=1;jettySize=auto;html=1;exitX=1;exitY=0.5;exitDx=0;exitDy=0;entryX=0;entryY=0.5;entryDx=0;entryDy=0;" edge="1" parent="1" source="CAYcls5t_juTczSQUHOq-1" target="CAYcls5t_juTczSQUHOq-2">
          <mxGeometry relative="1" as="geometry" />
        </mxCell>
        <mxCell id="CAYcls5t_juTczSQUHOq-1" value="Does the structure ID match between ParksGIS and structuresdb?" style="rounded=0;whiteSpace=wrap;html=1;" vertex="1" parent="1">
          <mxGeometry x="90" y="140" width="120" height="60" as="geometry" />
        </mxCell>
        <mxCell id="CAYcls5t_juTczSQUHOq-7" style="edgeStyle=orthogonalEdgeStyle;rounded=0;orthogonalLoop=1;jettySize=auto;html=1;exitX=1;exitY=0.5;exitDx=0;exitDy=0;" edge="1" parent="1" source="CAYcls5t_juTczSQUHOq-2" target="CAYcls5t_juTczSQUHOq-4">
          <mxGeometry relative="1" as="geometry" />
        </mxCell>
        <mxCell id="CAYcls5t_juTczSQUHOq-2" value="Yes" style="rounded=0;whiteSpace=wrap;html=1;" vertex="1" parent="1">
          <mxGeometry x="260" y="155" width="40" height="30" as="geometry" />
        </mxCell>
        <mxCell id="CAYcls5t_juTczSQUHOq-3" value="No" style="rounded=0;whiteSpace=wrap;html=1;" vertex="1" parent="1">
          <mxGeometry x="130" y="230" width="40" height="30" as="geometry" />
        </mxCell>
        <mxCell id="CAYcls5t_juTczSQUHOq-8" style="edgeStyle=orthogonalEdgeStyle;rounded=0;orthogonalLoop=1;jettySize=auto;html=1;exitX=1;exitY=0.5;exitDx=0;exitDy=0;entryX=0;entryY=0.5;entryDx=0;entryDy=0;" edge="1" parent="1" source="CAYcls5t_juTczSQUHOq-4" target="CAYcls5t_juTczSQUHOq-5">
          <mxGeometry relative="1" as="geometry" />
        </mxCell>
        <mxCell id="CAYcls5t_juTczSQUHOq-10" style="edgeStyle=orthogonalEdgeStyle;rounded=0;orthogonalLoop=1;jettySize=auto;html=1;exitX=0.5;exitY=1;exitDx=0;exitDy=0;entryX=0.5;entryY=0;entryDx=0;entryDy=0;" edge="1" parent="1" source="CAYcls5t_juTczSQUHOq-4" target="CAYcls5t_juTczSQUHOq-9">
          <mxGeometry relative="1" as="geometry" />
        </mxCell>
        <mxCell id="CAYcls5t_juTczSQUHOq-4" value="Is the attribute information or geometry different?" style="rounded=0;whiteSpace=wrap;html=1;" vertex="1" parent="1">
          <mxGeometry x="350" y="140" width="120" height="60" as="geometry" />
        </mxCell>
        <mxCell id="CAYcls5t_juTczSQUHOq-17" style="edgeStyle=orthogonalEdgeStyle;rounded=0;orthogonalLoop=1;jettySize=auto;html=1;exitX=1;exitY=0.5;exitDx=0;exitDy=0;entryX=0;entryY=0.5;entryDx=0;entryDy=0;" edge="1" parent="1" source="CAYcls5t_juTczSQUHOq-5" target="CAYcls5t_juTczSQUHOq-14">
          <mxGeometry relative="1" as="geometry" />
        </mxCell>
        <mxCell id="CAYcls5t_juTczSQUHOq-5" value="Yes" style="rounded=0;whiteSpace=wrap;html=1;" vertex="1" parent="1">
          <mxGeometry x="520" y="155" width="40" height="30" as="geometry" />
        </mxCell>
        <mxCell id="CAYcls5t_juTczSQUHOq-13" style="edgeStyle=orthogonalEdgeStyle;rounded=0;orthogonalLoop=1;jettySize=auto;html=1;exitX=0.5;exitY=1;exitDx=0;exitDy=0;entryX=0.5;entryY=0;entryDx=0;entryDy=0;entryPerimeter=0;" edge="1" parent="1" source="CAYcls5t_juTczSQUHOq-9" target="CAYcls5t_juTczSQUHOq-12">
          <mxGeometry relative="1" as="geometry" />
        </mxCell>
        <mxCell id="CAYcls5t_juTczSQUHOq-9" value="No" style="rounded=0;whiteSpace=wrap;html=1;" vertex="1" parent="1">
          <mxGeometry x="390" y="230" width="40" height="30" as="geometry" />
        </mxCell>
        <mxCell id="CAYcls5t_juTczSQUHOq-12" value="No Transaction Required" style="whiteSpace=wrap;html=1;shape=mxgraph.basic.octagon2;align=center;verticalAlign=middle;dx=15;" vertex="1" parent="1">
          <mxGeometry x="360" y="290" width="100" height="100" as="geometry" />
        </mxCell>
        <mxCell id="CAYcls5t_juTczSQUHOq-19" style="edgeStyle=orthogonalEdgeStyle;rounded=0;orthogonalLoop=1;jettySize=auto;html=1;exitX=0.5;exitY=1;exitDx=0;exitDy=0;entryX=0.5;entryY=0;entryDx=0;entryDy=0;" edge="1" parent="1" source="CAYcls5t_juTczSQUHOq-14" target="CAYcls5t_juTczSQUHOq-18">
          <mxGeometry relative="1" as="geometry" />
        </mxCell>
        <mxCell id="CAYcls5t_juTczSQUHOq-14" value="Is the structure ID a duplicate?" style="rounded=0;whiteSpace=wrap;html=1;" vertex="1" parent="1">
          <mxGeometry x="610" y="140" width="120" height="60" as="geometry" />
        </mxCell>
        <mxCell id="CAYcls5t_juTczSQUHOq-15" value="Is the structure ID null?" style="rounded=0;whiteSpace=wrap;html=1;" vertex="1" parent="1">
          <mxGeometry x="610" y="350" width="120" height="60" as="geometry" />
        </mxCell>
        <mxCell id="CAYcls5t_juTczSQUHOq-16" value="Has the objectid changed?" style="rounded=0;whiteSpace=wrap;html=1;" vertex="1" parent="1">
          <mxGeometry x="610" y="440" width="120" height="60" as="geometry" />
        </mxCell>
        <mxCell id="CAYcls5t_juTczSQUHOq-18" value="Yes" style="rounded=0;whiteSpace=wrap;html=1;" vertex="1" parent="1">
          <mxGeometry x="650" y="230" width="40" height="30" as="geometry" />
        </mxCell>
      </root>
    </mxGraphModel>
  </diagram>
</mxfile>
